<svg xmlns="http://www.w3.org/2000/svg" xmlns:xlink="http://www.w3.org/1999/xlink" viewBox="0 0 1128.34 1707.23"><defs><style>.cls-1{fill:url(#linear-gradient);}.cls-2{fill:url(#linear-gradient-2);}.cls-3{fill:url(#linear-gradient-3);}.cls-4{fill:url(#linear-gradient-4);}.cls-5{fill:#4cb048;}.cls-6{fill:#8cbf3f;}.cls-7{fill:#afca36;}.cls-8{fill:url(#linear-gradient-5);}.cls-9{fill:url(#linear-gradient-6);}.cls-10,.cls-11,.cls-12{fill:none;stroke-miterlimit:10;}.cls-10,.cls-11{stroke-width:20.97px;}.cls-10{stroke:url(#linear-gradient-7);}.cls-11{stroke:url(#linear-gradient-8);}.cls-12{stroke-width:19.5px;stroke:url(#linear-gradient-9);}.cls-13,.cls-14,.cls-15,.cls-16,.cls-17,.cls-18,.cls-19{fill-rule:evenodd;}.cls-13{fill:url(#linear-gradient-10);}.cls-14{fill:url(#linear-gradient-11);}.cls-15{fill:url(#linear-gradient-12);}.cls-16{fill:url(#linear-gradient-13);}.cls-17{fill:url(#linear-gradient-14);}.cls-18{fill:url(#linear-gradient-15);}.cls-19{fill:url(#linear-gradient-16);}</style><linearGradient id="linear-gradient" x1="362.89" y1="1487.65" x2="800.97" y2="1234.72" gradientUnits="userSpaceOnUse"><stop offset="0.2" stop-color="#afca36"/><stop offset="0.66" stop-color="#4fb147"/><stop offset="1" stop-color="#4cb048"/></linearGradient><linearGradient id="linear-gradient-2" x1="349.77" y1="1318.17" x2="803.78" y2="1439.82" gradientUnits="userSpaceOnUse"><stop offset="0" stop-color="#afca36"/><stop offset="0.6" stop-color="#74ba41"/><stop offset="1" stop-color="#4cb048"/></linearGradient><linearGradient id="linear-gradient-3" x1="298.68" y1="556.83" x2="829.66" y2="556.83" gradientUnits="userSpaceOnUse"><stop offset="0.76" stop-color="#f4ea0e"/><stop offset="1" stop-color="#faac1e"/></linearGradient><linearGradient id="linear-gradient-4" x1="335.48" y1="569.35" x2="829.66" y2="569.35" gradientUnits="userSpaceOnUse"><stop offset="0" stop-color="#f4ea0e"/><stop offset="1" stop-color="#faac1e"/></linearGradient><linearGradient id="linear-gradient-5" x1="336.26" y1="965.72" x2="1111.82" y2="965.72" gradientUnits="userSpaceOnUse"><stop offset="0" stop-color="#afca36"/><stop offset="1" stop-color="#8cbf3f"/><stop offset="1" stop-color="#4cb048"/></linearGradient><linearGradient id="linear-gradient-6" x1="16.52" y1="835.31" x2="443.99" y2="835.31" gradientUnits="userSpaceOnUse"><stop offset="0" stop-color="#afca36"/><stop offset="1" stop-color="#97c23c"/><stop offset="1" stop-color="#8cbf3f"/><stop offset="1" stop-color="#4cb048"/></linearGradient><linearGradient id="linear-gradient-7" y1="960.57" x2="1128.34" y2="960.57" gradientUnits="userSpaceOnUse"><stop offset="0.34" stop-color="#afca36"/><stop offset="0.54" stop-color="#8cbf3f"/><stop offset="0.74" stop-color="#4cb048"/></linearGradient><linearGradient id="linear-gradient-8" x1="0" y1="282.09" x2="1128.34" y2="282.09" xlink:href="#linear-gradient-7"/><linearGradient id="linear-gradient-9" x1="164.4" y1="1469.44" x2="963.95" y2="1469.44" xlink:href="#linear-gradient-2"/><linearGradient id="linear-gradient-10" x1="97.23" y1="311.48" x2="556.49" y2="311.48" gradientUnits="userSpaceOnUse"><stop offset="1" stop-color="#f4ea0e"/><stop offset="1" stop-color="#faac1e"/></linearGradient><linearGradient id="linear-gradient-11" x1="136" y1="332.1" x2="556.49" y2="332.1" xlink:href="#linear-gradient-4"/><linearGradient id="linear-gradient-12" x1="534.73" y1="288.49" x2="1030.85" y2="288.49" xlink:href="#linear-gradient-4"/><linearGradient id="linear-gradient-13" x1="570.87" y1="143.05" x2="812.42" y2="143.05" xlink:href="#linear-gradient-10"/><linearGradient id="linear-gradient-14" x1="81.34" y1="570.2" x2="261.94" y2="570.2" xlink:href="#linear-gradient-10"/><linearGradient id="linear-gradient-15" x1="118.44" y1="570.2" x2="261.94" y2="570.2" gradientUnits="userSpaceOnUse"><stop offset="0" stop-color="#f4ea0e"/><stop offset="0.5" stop-color="#f7cb16"/><stop offset="1" stop-color="#faac1e"/></linearGradient><linearGradient id="linear-gradient-16" x1="866.63" y1="500.48" x2="1043.34" y2="500.48" xlink:href="#linear-gradient-4"/></defs><g id="Layer_2" data-name="Layer 2"><g id="Layer_1-2" data-name="Layer 1"><path class="cls-1" d="M831.18,1302.18a267,267,0,0,1-230.5,264.54,269.62,269.62,0,0,1-36.51,2.47c-147.46,0-267-119.55-267-267,0-5.36.16-10.7.47-16l1.78,1c1.31.69,2.65,1.36,4,2.06,2.12,1.13,4.24,2.23,6.37,3.32,1.39.72,2.75,1.47,4.16,2.18l.57.27.2.1c.52.25,1.05.49,1.56.75,1.75.88,3.51,1.72,5.29,2.58.51.25,1,.52,1.57.77q6.76,3.26,13.58,6.32l.48.21h0q4.05,1.82,8.14,3.55c2,.87,4.07,1.72,6.11,2.58q20.34,8.4,41.37,15.17a555.34,555.34,0,0,0,57.71,15.23c2.84.58,5.63,1.13,8.59,1.69l8.05,1.5c.22,0,.44.09.67.11h0c2.76.46,5.57.94,8.22,1.34,2.95.48,5.88.93,8.69,1.3,2.21.33,4.47.64,6.54.9,1.26.18,2.53.36,3.48.45,2.45.32,4.89.59,7.34.86,2.79.32,5.55.59,8.07.84.53,0,1.06.1,1.58.13,2.66.27,5.36.5,8.21.7l2.27.16c1.44.12,2.88.21,4.32.3.62.05,1.29.12,1.9.14,2.47.16,4.94.33,7,.4,1.76.1,3.51.18,5.22.25l1.17.07,2.33.06c2.46.1,4.91.17,7.21.2h0c4.34.1,8.61.17,12.7.17,4.25,0,8.51,0,12.56-.17,1,0,2,0,3-.09s2,0,3-.08l2,0,1.18,0,.49,0c2.12-.08,4.21-.16,6.32-.32,2.36-.08,4.72-.24,6.93-.38,2.9-.16,5.77-.39,8.88-.63,2.64-.19,5.33-.42,8-.69.5,0,1-.07,1.32-.11,2.79-.27,5.55-.54,8.36-.86,2.46-.27,4.86-.54,7-.84,1.26-.11,2.53-.29,3.62-.44,2.23-.29,4.49-.6,6.59-.91,2.92-.39,5.88-.84,8.71-1.3s5.55-.9,8.31-1.36h0c.22,0,.43-.07.67-.11l8.16-1.52c2.83-.54,5.63-1.09,8.45-1.67A553.31,553.31,0,0,0,781.23,1310l3.54-1.53c2.13-.91,4.26-1.8,6.37-2.74,1.81-.8,3.61-1.64,5.41-2.46.89-.42,1.79-.82,2.68-1.25,4-1.85,8-3.77,12-5.75l1.67-.81.83-.41.7-.33c4.9-2.47,9.72-5,14.42-7.53l.07,0c.59-.33,1.19-.64,1.79-1Q831.18,1294.14,831.18,1302.18Z"/><path class="cls-2" d="M831.18,1302.18a266.85,266.85,0,0,1-130.26,229.37,273.3,273.3,0,0,1-39.64,8.45,279.45,279.45,0,0,1-37.71,2.55c-137,0-250.59-99.82-272.12-230.66q20.34,8.4,41.37,15.17a555.34,555.34,0,0,0,57.71,15.23c2.84.58,5.63,1.13,8.59,1.69l8.05,1.5c.22,0,.44.09.67.11h0c2.76.46,5.57.94,8.22,1.34,2.95.48,5.88.93,8.69,1.3,2.21.33,4.47.64,6.54.9,1.26.18,2.53.36,3.48.45,2.45.32,4.89.59,7.34.86,2.79.32,5.55.59,8.07.84.53,0,1.06.1,1.58.13,2.66.27,5.36.5,8.21.7l2.27.16c1.44.12,2.88.21,4.32.3.62.05,1.29.12,1.9.14,2.47.16,4.94.33,7,.4,1.76.1,3.51.18,5.22.25l1.17.07,2.33.06c2.46.1,4.91.17,7.21.2h0c4.34.1,8.61.17,12.7.17,4.25,0,8.51,0,12.56-.17,1,0,2,0,3-.09s2,0,3-.08l2,0,1.18,0,.49,0c2.12-.08,4.21-.16,6.32-.32,2.36-.08,4.72-.24,6.93-.38,2.9-.16,5.77-.39,8.88-.63,2.64-.19,5.33-.42,8-.69.5,0,1-.07,1.32-.11,2.79-.27,5.55-.54,8.36-.86,2.46-.27,4.86-.54,7-.84,1.26-.11,2.53-.29,3.62-.44,2.23-.29,4.49-.6,6.59-.91,2.92-.39,5.88-.84,8.71-1.3s5.55-.9,8.31-1.36h0c.22,0,.43-.07.67-.11l8.16-1.52c2.83-.54,5.63-1.09,8.45-1.67A553.31,553.31,0,0,0,781.23,1310l3.54-1.53c2.13-.91,4.26-1.8,6.37-2.74,1.81-.8,3.61-1.64,5.41-2.46.89-.42,1.79-.82,2.68-1.25,4-1.85,8-3.77,12-5.75l1.67-.81.83-.41.7-.33c4.9-2.47,9.72-5,14.42-7.53l.07,0c.59-.33,1.19-.64,1.79-1Q831.18,1294.14,831.18,1302.18Z"/><path class="cls-3" d="M829.66,576.15a693.18,693.18,0,0,0-206.22,94.57,700.77,700.77,0,0,0-82.58,65.42q-20.67-10.44-41.95-19.45a689,689,0,0,0-163.43-46.46q-18-2.81-36.22-4.63-.57-8.82-.58-17.79c0-149.29,121-270.29,270.29-270.29A270.41,270.41,0,0,1,829.66,576.15Z"/><path class="cls-4" d="M829.66,576.15a693.18,693.18,0,0,0-206.22,94.57,700.77,700.77,0,0,0-82.58,65.42q-20.67-10.44-41.95-19.45a689,689,0,0,0-163.43-46.46c1.41-148.06,121.89-267.66,270.27-267.66a269,269,0,0,1,133.1,35A270.41,270.41,0,0,1,829.66,576.15Z"/><path class="cls-5" d="M852.41,1134.7a495.35,495.35,0,0,0-106.59,157.94q-8,19-14.39,38.43c158.11-50.65,284.94-171.19,344.13-325.26a488.62,488.62,0,0,0-65.23,22.32A495.26,495.26,0,0,0,852.41,1134.7Z"/><path class="cls-6" d="M700.5,982.8a708.68,708.68,0,0,0-196.19,371.06A554.34,554.34,0,0,0,646.1,1351a565.08,565.08,0,0,1,29.08-88.25A576.52,576.52,0,0,1,980.45,957.47a564.12,564.12,0,0,1,119.82-35.69,549.79,549.79,0,0,0,11.55-112.32V780.29A707.94,707.94,0,0,0,700.5,982.8Z"/><path class="cls-7" d="M1111.82,564.17V703a787.58,787.58,0,0,0-683,637.23,544.84,544.84,0,0,1-92.55-32.69q-19.27-8.8-37.75-19.09C382.81,901.31,710,603.8,1111.82,564.17Z"/><path class="cls-8" d="M1111.82,591.21V703a787.58,787.58,0,0,0-683,637.23,544.84,544.84,0,0,1-92.55-32.69C419.14,934.06,728.23,644.72,1111.82,591.21Z"/><path class="cls-6" d="M30.88,934.44a547.77,547.77,0,0,0,199.2,309A997.63,997.63,0,0,1,335.47,983.25a707,707,0,0,0-262.68-50Q51.74,933.24,30.88,934.44Z"/><path class="cls-7" d="M466.06,806.15Q454.83,818.33,444,830.9a1004.63,1004.63,0,0,0-66.84,86.52C280.78,877,178.38,856.53,72.79,856.53q-27.18,0-54.11,1.82-2.13-24.15-2.16-48.89V720.11q27.95-1.68,56.27-1.7A920.3,920.3,0,0,1,466.06,806.15Z"/><path class="cls-9" d="M444,830.9a1004.63,1004.63,0,0,0-66.84,86.52C280.78,877,178.38,856.53,72.79,856.53q-27.18,0-54.11,1.82-2.13-24.15-2.16-48.89V754.9q27.95-1.68,56.27-1.7A920.44,920.44,0,0,1,444,830.9Z"/><path class="cls-10" d="M1117.86,552.19v260.6q0,9.21-.32,18.4c-.09,2.55-.25,5.1-.38,7.64-.16,3.54-.31,7.1-.54,10.64-.21,3.1-.51,6.21-.77,9.3s-.47,5.92-.76,8.86c-.34,3.33-.75,6.63-1.15,9.93-.32,2.72-.61,5.46-1,8.17-.45,3.34-1,6.65-1.49,10-.4,2.71-.79,5.41-1.24,8.1-.54,3.2-1.15,6.38-1.74,9.57-.53,2.83-1,5.64-1.61,8.44-.61,3-1.27,5.92-1.93,8.89s-1.32,6.06-2,9.09c-.63,2.66-1.31,5.3-2,7.94-.85,3.34-1.7,6.67-2.61,10-.63,2.27-1.3,4.55-2,6.82-1.06,3.68-2.14,7.36-3.28,11-.58,1.88-1.2,3.75-1.8,5.62-1.31,4.05-2.65,8.09-4,12.1-.51,1.47-1,2.94-1.57,4.41q-2.37,6.59-4.88,13.1c-.43,1.11-.88,2.22-1.32,3.34q-2.74,7-5.7,13.87c-.36.84-.73,1.68-1.1,2.53q-3.09,7.18-6.42,14.29c-.33.71-.67,1.4-1,2.11q-3.39,7.14-7,14.2c-.38.76-.77,1.51-1.16,2.26q-3.49,6.79-7.17,13.46c-.58,1.05-1.17,2.1-1.75,3.16-1.25,2.22-2.45,4.48-3.73,6.67-1,1.82-2.17,3.6-3.24,5.41-.86,1.42-1.7,2.84-2.57,4.26-2.06,3.41-4.15,6.77-6.28,10.13-1.31,2-2.63,4.08-3.94,6.11q-2.57,3.9-5.18,7.74c-1.83,2.68-3.66,5.35-5.53,8-1.26,1.79-2.54,3.55-3.82,5.32q-3.58,5-7.28,9.87c-.73,1-1.48,1.92-2.23,2.89q-4.53,5.91-9.21,11.71c-.11.14-.23.28-.35.41a552,552,0,0,1-99.16,94.88l-1.24.93c-3.36,2.48-6.78,4.9-10.21,7.32-1.68,1.19-3.36,2.39-5,3.55-2.69,1.85-5.4,3.64-8.13,5.44-2.51,1.67-5,3.34-7.59,5-2.23,1.43-4.48,2.82-6.74,4.21-1.86,1.16-3.68,2.34-5.56,3.49-1.32.78-2.66,1.53-4,2.32-1.66,1-3.34,1.95-5,2.9-1.88,1.1-3.76,2.24-5.67,3.32-2.77,1.56-5.49,3-8.2,4.49l-.07,0c-4.69,2.54-9.5,5-14.38,7.51l-.71.34c-.26.14-.54.26-.82.4-.54.28-1.12.54-1.67.81q-5.94,3-12,5.75l-2.67,1.23c-1.8.82-3.59,1.67-5.39,2.46-2.11.95-4.25,1.82-6.36,2.74-1.18.52-2.36,1-3.53,1.52a552.57,552.57,0,0,1-103.2,32.19c-2.81.57-5.6,1.13-8.43,1.67l-8.14,1.51c-.23,0-.45.08-.67.11h0c-2.76.46-5.55.93-8.3,1.36s-5.77.91-8.7,1.3c-2.08.3-4.33.61-6.57.9-1.08.15-2.35.33-3.61.44-2.14.29-4.55.57-7,.83-2.79.32-5.54.59-8.34.87-.35,0-.82.09-1.31.11-2.64.27-5.32.49-8,.68-3.11.25-6,.46-8.87.63-2.19.15-4.55.3-6.91.38-2.11.16-4.18.24-6.3.32h-.5l-1.17,0-2,.06c-1,0-2,.06-3,.08s-2,.08-3,.09c-4.06.12-8.3.17-12.54.17s-8.34-.07-12.67-.17h0c-2.29,0-4.74-.1-7.2-.2l-2.3-.06c-.4,0-.78-.06-1.17-.07-1.71-.07-3.46-.15-5.23-.25-2.09-.07-4.53-.23-7-.4-.61,0-1.28-.09-1.91-.13-1.44-.1-2.87-.19-4.3-.3l-2.26-.16c-2.85-.21-5.55-.43-8.2-.7-.53,0-1.05-.08-1.56-.14-2.53-.25-5.28-.52-8.07-.84-2.46-.26-4.87-.54-7.32-.85-.95-.09-2.21-.27-3.47-.45-2.07-.26-4.32-.57-6.52-.89-2.81-.37-5.74-.82-8.67-1.3-2.65-.41-5.45-.88-8.21-1.34h0c-.22,0-.44-.06-.66-.11l-8-1.49c-2.94-.56-5.73-1.12-8.56-1.69a556.35,556.35,0,0,1-57.6-15.19,550.21,550.21,0,0,1-55.48-21.26h0l-.46-.21q-6.81-3-13.56-6.3l-1.57-.77c-1.77-.85-3.53-1.7-5.27-2.58-.51-.25-1-.49-1.55-.75l-.22-.1c-.18-.08-.37-.17-.55-.27-1.41-.7-2.76-1.45-4.16-2.17-2.12-1.08-4.23-2.19-6.35-3.3-1.31-.71-2.65-1.37-3.95-2.07l-8-4.39c-5.13-2.91-10-5.75-14.79-8.62h0A555.27,555.27,0,0,1,83.88,1086.68,547.23,547.23,0,0,1,10.49,812.79l.24-265"/><path class="cls-11" d="M10.49,564.17c0-305.78,247.88-553.68,553.68-553.68s553.69,247.9,553.69,553.68"/><path class="cls-12" d="M951.14,1259.07l-49.89-9.88c-1.85,1.41-3.72,2.82-5.59,4.21l-1.24.94c-3.36,2.48-6.78,4.9-10.21,7.31l-5,3.57c-2.69,1.84-5.4,3.63-8.13,5.42-2.52,1.69-5,3.35-7.6,5-2.21,1.44-4.47,2.81-6.73,4.22-1.85,1.15-3.68,2.34-5.56,3.48-1.32.79-2.66,1.54-4,2.32-1.66,1-3.34,1.95-5,2.9-1.88,1.1-3.76,2.24-5.66,3.32-2.77,1.55-5.5,3-8.21,4.49l-.07,0c-4.68,2.54-9.5,5-14.38,7.51-.28.14-.48.24-.71.34l-.81.4c-.55.28-1.13.53-1.67.81q-5.94,3-12,5.75l-2.68,1.23c-1.79.82-3.58,1.66-5.39,2.46-2.11.95-4.23,1.83-6.35,2.73-1.18.53-2.36,1-3.53,1.53a551.7,551.7,0,0,1-103.19,32.18c-2.82.59-5.61,1.14-8.45,1.67l-8.12,1.52a6,6,0,0,1-.68.11h0c-2.76.46-5.55.93-8.29,1.35s-5.78.92-8.71,1.31c-2.08.3-4.33.61-6.56.9-1.09.15-2.36.33-3.62.44-2.14.29-4.54.57-7,.83-2.79.33-5.54.6-8.33.87-.36,0-.82.09-1.31.12-2.65.26-5.33.48-8,.67-3.1.25-6,.46-8.87.63-2.19.14-4.55.3-6.91.38-2.11.16-4.17.24-6.3.32l-.5,0-1.17,0-2,.06-3,.07c-1,0-2,.08-3,.09-4.05.12-8.29.17-12.53.17s-8.34-.07-12.67-.17h0c-2.29,0-4.74-.1-7.19-.2l-2.31-.06c-.39,0-.78-.06-1.17-.06-1.71-.08-3.46-.16-5.23-.26-2.09-.07-4.53-.24-7-.39-.61,0-1.29-.09-1.9-.15-1.45-.09-2.88-.18-4.31-.29-.77-.06-1.49-.1-2.26-.17-2.85-.2-5.55-.42-8.2-.68-.52,0-1.05-.09-1.56-.15-2.53-.24-5.28-.51-8.08-.84-2.45-.26-4.86-.54-7.31-.85-.95-.09-2.22-.27-3.47-.45-2.06-.26-4.32-.57-6.53-.88-2.8-.38-5.72-.83-8.66-1.31-2.66-.41-5.45-.88-8.21-1.34h0a5.34,5.34,0,0,1-.66-.11l-8-1.48c-2.94-.57-5.74-1.12-8.56-1.71a551.41,551.41,0,0,1-113.08-36.44h0c-.16-.07-.31-.15-.46-.2q-6.8-3.08-13.56-6.31l-1.58-.77c-1.76-.85-3.52-1.7-5.26-2.58-.51-.25-1.05-.49-1.55-.75l-.22-.1c-.19-.08-.37-.18-.56-.27-1.4-.7-2.75-1.46-4.14-2.16-2.13-1.09-4.24-2.2-6.36-3.32-1.31-.7-2.65-1.36-4-2.06l-8-4.39c-5.12-2.91-10-5.75-14.79-8.62h0A551.79,551.79,0,0,1,217.87,1242l-39.29,6.7a388,388,0,0,0-1.38,107.13l54.27,10.75A339.83,339.83,0,0,0,282,1493.38l-32,45.13a387.56,387.56,0,0,0,74.69,76.81l46-30.76a341,341,0,0,0,125.44,53.93l9.29,54.54a387.19,387.19,0,0,0,107.13,1.39l10.75-54.28a339.42,339.42,0,0,0,126.8-50.53l45.14,32a387.45,387.45,0,0,0,76.8-74.68l-30.76-46a341.32,341.32,0,0,0,54-125.44l54.53-9.3A387.1,387.1,0,0,0,951.14,1259.07Z"/><path class="cls-13" d="M556.49,108.68v43c-23.18,6.55-36.2,21.28-35.93,45.91.18,16.71,12.62,36.5,35.93,41.11v46.71C495.28,287.16,438.7,304,387.11,336.93s-90.9,76.9-118.6,131.47H219.2c0,1.05,0,2,0,3,.05,4.81.11,9.61-1.32,14.28C213,501.31,202.61,511,186.45,513.73c-20.48,3.52-40.17-10.32-44.06-31.33a51.7,51.7,0,0,1-.59-7c-.11-2.2,0-4.41,0-6.85H97.23c16-60.09,42.16-114.92,79.17-164.46q84.25-112.83,215.71-163.73C444.92,119.93,499.75,109.65,556.49,108.68Z"/><path class="cls-14" d="M520.56,197.57c.18,16.71,12.62,36.5,35.93,41.11v46.71C495.28,287.16,438.7,304,387.11,336.93s-90.9,76.9-118.6,131.47H219.2c0,1.05,0,2,0,3,.05,4.81.11,9.61-1.32,14.28C213,501.31,202.61,511,186.45,513.73c-20.48,3.52-40.17-10.32-44.06-31.33a51.7,51.7,0,0,1-.59-7c-.11-2.2,0-4.41,0-6.85H136a491.19,491.19,0,0,1,64.91-117.28q87.81-117.55,224.76-170.59a490.09,490.09,0,0,1,130.82-30.71v1.74C533.31,158.21,520.29,172.94,520.56,197.57Z"/><path class="cls-15" d="M570.86,285.38V225.1c-1.26-.08-2.38-.2-3.49-.2a43.1,43.1,0,0,1-10-.84A30.12,30.12,0,0,1,535,198.81a29.72,29.72,0,0,1,24-32.61,52.06,52.06,0,0,1,6.13-.51c1.82-.11,3.65-.13,5.72-.2.21-6.37.07-12.59.1-18.8s0-12.67,0-19v-19c58.82,1,115.51,11.83,170,33.53q131.45,52.35,214.61,167a475.3,475.3,0,0,1,75.36,159.17H1001c-2.4-15.07-9.65-27.2-22.05-36.06A51.46,51.46,0,0,0,945,422.67c-23.42,1.39-45,18.59-49.28,45.59H859.57c-27.69-54.51-67.12-98.64-118.85-131.53S632.35,287,570.86,285.38Z"/><path class="cls-16" d="M812.42,177.43q-105.79-33.5-220.61-26.19-10.51.69-20.92,1.72c0-2.09,0-4.19,0-6.27,0-6.33,0-12.67,0-19v-19c58.82,1,115.51,11.83,170,33.54A497.69,497.69,0,0,1,812.42,177.43Z"/><path class="cls-17" d="M261.94,482.82c-.13.38-.25.75-.36,1.1s-.24.7-.38,1A322.19,322.19,0,0,0,249,517.61c-.39,1.26-.78,2.53-1.16,3.8-.28,1-.57,1.9-.85,2.85-.08.32-.17.64-.26,1-.19.63-.36,1.27-.55,1.9-.36,1.28-.71,2.55-1,3.83-.17.64-.34,1.28-.5,1.92-.85,3.22-1.64,6.47-2.39,9.71q-3.33,14.63-5.32,29.5-.84,6.3-1.47,12.61l-.3,3.16c-.18,2.11-.35,4.21-.49,6.33-.06,1-.12,2.1-.18,3.16-.08,1.41-.14,2.82-.19,4.22s-.09,2.83-.11,4.23h0c0,3.36-.13,6.7-.2,10.06s-.11,6.71-.11,10.07q0,15.83,0,31.64a927,927,0,0,0-115.45-12.92q-18.45-.89-37.1-1.06,0-28.56,0-57.12c0-2.84,0-5.68.12-8.52.06-2.12.14-4.26.24-6.38s.21-4.25.34-6.37c.07-1.07.13-2.14.2-3.19.1-1.6.23-3.2.34-4.79s.25-3.19.38-4.78q.56-6.83,1.27-13.66c.17-1.52.34-3,.51-4.54.72-6.06,1.56-12.1,2.6-18.11s2.24-12.22,3.46-18.31c.4-2,.81-4.06,1.22-6.09.54-2.71,1.09-5.42,1.62-8.13a.94.94,0,0,1,0-.16,3.06,3.06,0,0,1,.14-.38,2.23,2.23,0,0,0,.08-.24h33.94c.06.34.11.67.17,1l.18,1c.14.66.27,1.32.41,2,.05.22.11.43.16.65.19.8.39,1.58.6,2.36s.45,1.54.71,2.3a51.8,51.8,0,0,0,6.82,13.8c.51.74,1,1.47,1.6,2.18a49.72,49.72,0,0,0,4.56,5.12c.33.33.67.64,1,1a58.77,58.77,0,0,0,6.7,5.37,50.74,50.74,0,0,0,23.41,8.8,55.94,55.94,0,0,0,7,.31l1.54,0,.52,0c.35,0,.69,0,1-.06l.27,0,.35,0a8.85,8.85,0,0,0,.9-.1,3.15,3.15,0,0,0,.61-.06c.5,0,1-.11,1.51-.19.32,0,.63-.09,1-.15a1.07,1.07,0,0,0,.25,0l.24,0,1.53-.28,1.18-.25c1.55-.34,3.08-.75,4.58-1.23.75-.23,1.49-.48,2.23-.76s1.45-.54,2.16-.85,1.44-.61,2.14-1c1-.49,2.08-1,3.09-1.58h0c1-.55,2-1.15,2.95-1.77h0c1-.62,1.9-1.28,2.82-2h0c.61-.46,1.21-.92,1.81-1.41h0c.74-.59,1.46-1.22,2.17-1.87.17-.14.33-.3.51-.47.53-.49,1.06-1,1.56-1.52s1.08-1.1,1.58-1.66,1-1.14,1.51-1.72q1.47-1.79,2.79-3.69c.44-.62.87-1.27,1.28-1.93.63-1,1.21-2,1.77-3,.38-.68.72-1.38,1.07-2.08a55.7,55.7,0,0,0,5-16Z"/><path class="cls-18" d="M261.94,482.82c-.13.38-.25.75-.36,1.1s-.24.7-.38,1A322.19,322.19,0,0,0,249,517.61q-2.35,7.57-4.36,15.26c-.85,3.22-1.64,6.47-2.39,9.71q-3.33,14.63-5.32,29.5-.84,6.3-1.47,12.61c-.41,4.21-.75,8.43-1,12.65-.08,1.41-.14,2.82-.19,4.22s-.09,2.83-.11,4.23h0c0,3.36-.13,6.7-.2,10.06s-.11,6.71-.11,10.07q0,15.83,0,31.64a927,927,0,0,0-115.45-12.92q0-47.22,0-94.43c0-13.46.79-26.89,1.86-40.32.72-9,1.59-18.08,2.73-27.08h4.79c.22,1.34.48,2.65.76,3.94.05.22.11.43.16.65.38,1.59.81,3.14,1.31,4.66a51.8,51.8,0,0,0,6.82,13.8c.51.74,1,1.47,1.6,2.18a49.72,49.72,0,0,0,4.56,5.12c.33.33.67.64,1,1a58.77,58.77,0,0,0,6.7,5.37,50.74,50.74,0,0,0,23.41,8.8,55.94,55.94,0,0,0,7,.31,55,55,0,0,0,9.69-1l1.18-.25c1.55-.34,3.08-.75,4.58-1.23.75-.23,1.49-.48,2.23-.76s1.45-.54,2.16-.85,1.44-.61,2.14-1c1-.49,2.08-1,3.09-1.58h0c1-.55,2-1.15,2.95-1.77h0c1-.62,1.9-1.28,2.82-2h0c.61-.46,1.21-.92,1.81-1.41h0a49.86,49.86,0,0,0,4.24-3.86c.55-.54,1.08-1.1,1.58-1.66s1-1.14,1.51-1.72q1.47-1.79,2.79-3.69c.44-.62.87-1.27,1.28-1.93.63-1,1.21-2,1.77-3,.38-.68.72-1.38,1.07-2.08a55.7,55.7,0,0,0,5-16Z"/><path class="cls-19" d="M1043.34,530.2a916.6,916.6,0,0,0-152.76,33.88,325,325,0,0,0-22.87-78.58c-.36-.83-.66-1.68-1.08-2.75h43c0-1.05.07-1.94.07-2.82a58.88,58.88,0,0,1,.83-12.29,38.71,38.71,0,0,1,76,1A42.24,42.24,0,0,1,987,475c.11,2.44,0,4.87,0,7.56,2.72.28,5.36.09,8,.13s5.18,0,7.78,0h32c.58,2.54,1.13,5,1.67,7.41,2.56,11.69,4.7,23.45,6.26,35.31C1042.94,527,1043.15,528.6,1043.34,530.2Z"/></g></g></svg>