<svg width="106" height="23" viewBox="0 0 106 23" fill="none" xmlns="http://www.w3.org/2000/svg">
<path d="M10.1016 1.02344H11.1709C14.9795 1.02344 18.0068 3.00098 20.2529 6.95605C20.9072 8.50879 21.2344 10.0371 21.2344 11.541C21.2344 15.9746 18.959 19.2656 14.4082 21.4141C13.1484 21.7754 12.0693 21.9561 11.1709 21.9561H10.4531C6.48828 21.9561 3.40234 20.042 1.19531 16.2139C0.84375 15.5107 0.545898 14.6123 0.301758 13.5186L0.477539 13.416H2.2793C2.55273 14.3047 2.82129 14.9639 3.08496 15.3936C4.96973 18.3916 7.33789 19.8906 10.1895 19.8906H10.9072C14.2373 19.8906 16.752 18.2158 18.4512 14.8662C18.8711 13.8311 19.0811 12.752 19.0811 11.6289V11.2627C19.0811 7.64941 17.2256 5.04688 13.5146 3.45508C12.5283 3.15234 11.6592 3.00098 10.9072 3.00098H10.3652C7.49414 3.00098 5.13086 4.4707 3.27539 7.41016C2.91406 8.04492 2.58203 9.00195 2.2793 10.2812H0.389648L0.213867 10.1934C0.331055 8.49414 1.2002 6.5752 2.82129 4.43652C5.00879 2.16113 7.43555 1.02344 10.1016 1.02344ZM28.3945 1.03809C28.5215 1.07715 28.9951 1.95605 29.8154 3.6748C29.3076 6.65332 28.4238 12.7324 27.1641 21.9121L26.9883 22H25.8457C25.4062 22 25.1865 21.7803 25.1865 21.3408C27.0322 7.80566 28.0088 1.03809 28.1162 1.03809H28.3945ZM45.4893 1.03809H45.5918C45.8359 1.03809 46.0215 1.98047 46.1484 3.86523C46.4023 5.20312 47.2861 11.2188 48.7998 21.9121L48.6094 22H46.9102C46.6562 22 46.4365 20.8037 46.251 18.4111C45.9971 17.1025 45.4941 13.5137 44.7422 7.64453H44.4492C44.3516 7.67383 41.959 12.459 37.2715 22H36.8027C36.6367 22 34.7471 18.2549 31.1338 10.7646C31.0752 10.7646 30.792 10.2275 30.2842 9.15332C30.4111 8.53809 30.5674 7.49805 30.7529 6.0332H30.8555C30.9531 6.0332 32.8721 9.8418 36.6123 17.459L37.0811 17.5615C37.2568 17.5615 39.7764 12.5225 44.6396 2.44434C45.0693 1.50684 45.3525 1.03809 45.4893 1.03809ZM52.2754 0.994141H53.7842C53.8428 0.994141 55.3174 3.35254 58.208 8.06934C57.5146 9.28027 57.168 9.93945 57.168 10.0469H57.0801C56.9824 10.0469 55.1904 7.21973 51.7041 1.56543V1.27246C51.7627 1.08691 51.9531 0.994141 52.2754 0.994141ZM66.3086 0.994141C66.4062 0.994141 66.5039 1.08691 66.6016 1.27246V1.56543C62.3926 8.4209 60.2881 11.9707 60.2881 12.2148V21.8242C60.2881 21.9512 60.2246 22.0146 60.0977 22.0146H58.3984C58.2715 22.0146 58.208 21.9512 58.208 21.8242V11.1748C62.251 4.49512 64.3262 1.10156 64.4336 0.994141H66.3086ZM70.4727 1.02344H72.2598C72.3867 1.04297 72.4502 1.10645 72.4502 1.21387V21.7803C72.4502 21.9072 72.3867 21.9707 72.2598 21.9707H70.4727C70.3457 21.9707 70.2822 21.9072 70.2822 21.7803V1.21387C70.3018 1.08691 70.3652 1.02344 70.4727 1.02344ZM74.1494 1.02344H75.5703C79.2422 1.02344 81.5029 1.78027 82.3525 3.29395C83.1143 4.3877 83.4951 5.39355 83.4951 6.31152V6.67773C83.4951 9.12891 82.2646 10.8623 79.8037 11.8779C78.4463 12.1904 77.2842 12.3467 76.3174 12.3467C80.9072 18.2158 83.2021 21.2334 83.2021 21.3994V21.6777C83.124 21.9316 82.8408 22.0586 82.3525 22.0586H81.2246C81.1465 22.0391 78.7246 18.958 73.959 12.8154V10.3691C73.9785 10.2422 74.042 10.1787 74.1494 10.1787H76.3174C76.3857 10.1787 76.4199 10.208 76.4199 10.2666L76.5957 10.1787H76.9766C79.1836 10.1787 80.5703 9.3291 81.1367 7.62988C81.1953 7.07324 81.2246 6.72656 81.2246 6.58984C81.2246 4.61719 79.9648 3.48438 77.4453 3.19141H74.1494C74.0225 3.19141 73.959 3.12793 73.959 3.00098V1.21387C73.9785 1.08691 74.042 1.02344 74.1494 1.02344ZM95.7451 0.671875H96.0381C96.2139 0.671875 97.874 4.17773 101.019 11.1895C101.458 11.9023 103.016 15.252 105.691 21.2383C105.691 21.5801 105.564 21.7998 105.311 21.8975H103.787C103.65 21.7607 102.532 19.5 100.433 15.1152L100.242 15.0127H91.4531C91.2285 15.0127 90.4277 16.6094 89.0508 19.8027C88.3965 21.1992 87.9863 21.9316 87.8203 22H86.6631C86.3213 22 86.0674 21.8389 85.9014 21.5166V21.4287C87.9619 16.751 89.334 13.8799 90.0176 12.8154H99.3926V12.7275C97.4102 8.51855 96.292 6.18945 96.0381 5.74023H95.7451C95.6182 5.74023 94.793 7.40039 93.2695 10.7207L93.0791 10.8086H91.0723L90.8672 10.7207C93.5723 4.95898 95.1982 1.60938 95.7451 0.671875Z" fill="#1F2C36"/>
</svg>
