<svg width="108" height="23" viewBox="0 0 108 23" fill="none" xmlns="http://www.w3.org/2000/svg">
<path d="M10.1016 1.02344H11.1709C14.9795 1.02344 18.0068 3.00098 20.2529 6.95605C20.9072 8.50879 21.2344 10.0371 21.2344 11.541C21.2344 15.9746 18.959 19.2656 14.4082 21.4141C13.1484 21.7754 12.0693 21.9561 11.1709 21.9561H10.4531C6.48828 21.9561 3.40234 20.042 1.19531 16.2139C0.84375 15.5107 0.545898 14.6123 0.301758 13.5186L0.477539 13.416H2.2793C2.55273 14.3047 2.82129 14.9639 3.08496 15.3936C4.96973 18.3916 7.33789 19.8906 10.1895 19.8906H10.9072C14.2373 19.8906 16.752 18.2158 18.4512 14.8662C18.8711 13.8311 19.0811 12.752 19.0811 11.6289V11.2627C19.0811 7.64941 17.2256 5.04688 13.5146 3.45508C12.5283 3.15234 11.6592 3.00098 10.9072 3.00098H10.3652C7.49414 3.00098 5.13086 4.4707 3.27539 7.41016C2.91406 8.04492 2.58203 9.00195 2.2793 10.2812H0.389648L0.213867 10.1934C0.331055 8.49414 1.2002 6.5752 2.82129 4.43652C5.00879 2.16113 7.43555 1.02344 10.1016 1.02344ZM27.3945 1.03809C27.5215 1.07715 27.9951 1.95605 28.8154 3.6748C28.3076 6.65332 27.4238 12.7324 26.1641 21.9121L25.9883 22H24.8457C24.4062 22 24.1865 21.7803 24.1865 21.3408C26.0322 7.80566 27.0088 1.03809 27.1162 1.03809H27.3945ZM44.4893 1.03809H44.5918C44.8359 1.03809 45.0215 1.98047 45.1484 3.86523C45.4023 5.20312 46.2861 11.2188 47.7998 21.9121L47.6094 22H45.9102C45.6562 22 45.4365 20.8037 45.251 18.4111C44.9971 17.1025 44.4941 13.5137 43.7422 7.64453H43.4492C43.3516 7.67383 40.959 12.459 36.2715 22H35.8027C35.6367 22 33.7471 18.2549 30.1338 10.7646C30.0752 10.7646 29.792 10.2275 29.2842 9.15332C29.4111 8.53809 29.5674 7.49805 29.7529 6.0332H29.8555C29.9531 6.0332 31.8721 9.8418 35.6123 17.459L36.0811 17.5615C36.2568 17.5615 38.7764 12.5225 43.6396 2.44434C44.0693 1.50684 44.3525 1.03809 44.4893 1.03809ZM52.2754 0.994141H53.7842C53.8428 0.994141 55.3174 3.35254 58.208 8.06934C57.5146 9.28027 57.168 9.93945 57.168 10.0469H57.0801C56.9824 10.0469 55.1904 7.21973 51.7041 1.56543V1.27246C51.7627 1.08691 51.9531 0.994141 52.2754 0.994141ZM66.3086 0.994141C66.4062 0.994141 66.5039 1.08691 66.6016 1.27246V1.56543C62.3926 8.4209 60.2881 11.9707 60.2881 12.2148V21.8242C60.2881 21.9512 60.2246 22.0146 60.0977 22.0146H58.3984C58.2715 22.0146 58.208 21.9512 58.208 21.8242V11.1748C62.251 4.49512 64.3262 1.10156 64.4336 0.994141H66.3086ZM71.4727 1.02344H73.2598C73.3867 1.04297 73.4502 1.10645 73.4502 1.21387V21.7803C73.4502 21.9072 73.3867 21.9707 73.2598 21.9707H71.4727C71.3457 21.9707 71.2822 21.9072 71.2822 21.7803V1.21387C71.3018 1.08691 71.3652 1.02344 71.4727 1.02344ZM75.1494 1.02344H76.5703C80.2422 1.02344 82.5029 1.78027 83.3525 3.29395C84.1143 4.3877 84.4951 5.39355 84.4951 6.31152V6.67773C84.4951 9.12891 83.2646 10.8623 80.8037 11.8779C79.4463 12.1904 78.2842 12.3467 77.3174 12.3467C81.9072 18.2158 84.2021 21.2334 84.2021 21.3994V21.6777C84.124 21.9316 83.8408 22.0586 83.3525 22.0586H82.2246C82.1465 22.0391 79.7246 18.958 74.959 12.8154V10.3691C74.9785 10.2422 75.042 10.1787 75.1494 10.1787H77.3174C77.3857 10.1787 77.4199 10.208 77.4199 10.2666L77.5957 10.1787H77.9766C80.1836 10.1787 81.5703 9.3291 82.1367 7.62988C82.1953 7.07324 82.2246 6.72656 82.2246 6.58984C82.2246 4.61719 80.9648 3.48438 78.4453 3.19141H75.1494C75.0225 3.19141 74.959 3.12793 74.959 3.00098V1.21387C74.9785 1.08691 75.042 1.02344 75.1494 1.02344ZM97.7451 0.671875H98.0381C98.2139 0.671875 99.874 4.17773 103.019 11.1895C103.458 11.9023 105.016 15.252 107.691 21.2383C107.691 21.5801 107.564 21.7998 107.311 21.8975H105.787C105.65 21.7607 104.532 19.5 102.433 15.1152L102.242 15.0127H93.4531C93.2285 15.0127 92.4277 16.6094 91.0508 19.8027C90.3965 21.1992 89.9863 21.9316 89.8203 22H88.6631C88.3213 22 88.0674 21.8389 87.9014 21.5166V21.4287C89.9619 16.751 91.334 13.8799 92.0176 12.8154H101.393V12.7275C99.4102 8.51855 98.292 6.18945 98.0381 5.74023H97.7451C97.6182 5.74023 96.793 7.40039 95.2695 10.7207L95.0791 10.8086H93.0723L92.8672 10.7207C95.5723 4.95898 97.1982 1.60938 97.7451 0.671875Z" fill="white"/>
</svg>
